%TF.GenerationSoftware,KiCad,Pcbnew,(5.1.10-1-10_14)*%
%TF.CreationDate,2021-12-01T23:10:12+09:00*%
%TF.ProjectId,EB-ESP32,45422d45-5350-4333-922e-6b696361645f,V1.0*%
%TF.SameCoordinates,Original*%
%TF.FileFunction,Legend,Top*%
%TF.FilePolarity,Positive*%
%FSLAX46Y46*%
G04 Gerber Fmt 4.6, Leading zero omitted, Abs format (unit mm)*
G04 Created by KiCad (PCBNEW (5.1.10-1-10_14)) date 2021-12-01 23:10:12*
%MOMM*%
%LPD*%
G01*
G04 APERTURE LIST*
%ADD10C,0.200000*%
%ADD11C,0.150000*%
%ADD12C,0.120000*%
G04 APERTURE END LIST*
D10*
X-2571428Y-8467857D02*
X-2071428Y-8467857D01*
X-1857142Y-9253571D02*
X-2571428Y-9253571D01*
X-2571428Y-7753571D01*
X-1857142Y-7753571D01*
X-714285Y-8467857D02*
X-500000Y-8539285D01*
X-428571Y-8610714D01*
X-357142Y-8753571D01*
X-357142Y-8967857D01*
X-428571Y-9110714D01*
X-500000Y-9182142D01*
X-642857Y-9253571D01*
X-1214285Y-9253571D01*
X-1214285Y-7753571D01*
X-714285Y-7753571D01*
X-571428Y-7825000D01*
X-500000Y-7896428D01*
X-428571Y-8039285D01*
X-428571Y-8182142D01*
X-500000Y-8325000D01*
X-571428Y-8396428D01*
X-714285Y-8467857D01*
X-1214285Y-8467857D01*
X285714Y-8682142D02*
X1428571Y-8682142D01*
X2142857Y-8467857D02*
X2642857Y-8467857D01*
X2857142Y-9253571D02*
X2142857Y-9253571D01*
X2142857Y-7753571D01*
X2857142Y-7753571D01*
X3428571Y-9182142D02*
X3642857Y-9253571D01*
X4000000Y-9253571D01*
X4142857Y-9182142D01*
X4214285Y-9110714D01*
X4285714Y-8967857D01*
X4285714Y-8825000D01*
X4214285Y-8682142D01*
X4142857Y-8610714D01*
X4000000Y-8539285D01*
X3714285Y-8467857D01*
X3571428Y-8396428D01*
X3500000Y-8325000D01*
X3428571Y-8182142D01*
X3428571Y-8039285D01*
X3500000Y-7896428D01*
X3571428Y-7825000D01*
X3714285Y-7753571D01*
X4071428Y-7753571D01*
X4285714Y-7825000D01*
X4928571Y-9253571D02*
X4928571Y-7753571D01*
X5500000Y-7753571D01*
X5642857Y-7825000D01*
X5714285Y-7896428D01*
X5785714Y-8039285D01*
X5785714Y-8253571D01*
X5714285Y-8396428D01*
X5642857Y-8467857D01*
X5500000Y-8539285D01*
X4928571Y-8539285D01*
X6285714Y-7753571D02*
X7214285Y-7753571D01*
X6714285Y-8325000D01*
X6928571Y-8325000D01*
X7071428Y-8396428D01*
X7142857Y-8467857D01*
X7214285Y-8610714D01*
X7214285Y-8967857D01*
X7142857Y-9110714D01*
X7071428Y-9182142D01*
X6928571Y-9253571D01*
X6500000Y-9253571D01*
X6357142Y-9182142D01*
X6285714Y-9110714D01*
X7785714Y-7896428D02*
X7857142Y-7825000D01*
X8000000Y-7753571D01*
X8357142Y-7753571D01*
X8500000Y-7825000D01*
X8571428Y-7896428D01*
X8642857Y-8039285D01*
X8642857Y-8182142D01*
X8571428Y-8396428D01*
X7714285Y-9253571D01*
X8642857Y-9253571D01*
X714285Y-10203571D02*
X1214285Y-11703571D01*
X1714285Y-10203571D01*
X2999999Y-11703571D02*
X2142857Y-11703571D01*
X2571428Y-11703571D02*
X2571428Y-10203571D01*
X2428571Y-10417857D01*
X2285714Y-10560714D01*
X2142857Y-10632142D01*
X3642857Y-11560714D02*
X3714285Y-11632142D01*
X3642857Y-11703571D01*
X3571428Y-11632142D01*
X3642857Y-11560714D01*
X3642857Y-11703571D01*
X4642857Y-10203571D02*
X4785714Y-10203571D01*
X4928571Y-10275000D01*
X5000000Y-10346428D01*
X5071428Y-10489285D01*
X5142857Y-10775000D01*
X5142857Y-11132142D01*
X5071428Y-11417857D01*
X5000000Y-11560714D01*
X4928571Y-11632142D01*
X4785714Y-11703571D01*
X4642857Y-11703571D01*
X4500000Y-11632142D01*
X4428571Y-11560714D01*
X4357142Y-11417857D01*
X4285714Y-11132142D01*
X4285714Y-10775000D01*
X4357142Y-10489285D01*
X4428571Y-10346428D01*
X4500000Y-10275000D01*
X4642857Y-10203571D01*
D11*
X-34495238Y-2157142D02*
X-34542857Y-2204761D01*
X-34685714Y-2252380D01*
X-34780952Y-2252380D01*
X-34923809Y-2204761D01*
X-35019047Y-2109523D01*
X-35066666Y-2014285D01*
X-35114285Y-1823809D01*
X-35114285Y-1680952D01*
X-35066666Y-1490476D01*
X-35019047Y-1395238D01*
X-34923809Y-1300000D01*
X-34780952Y-1252380D01*
X-34685714Y-1252380D01*
X-34542857Y-1300000D01*
X-34495238Y-1347619D01*
X-33876190Y-1252380D02*
X-33685714Y-1252380D01*
X-33590476Y-1300000D01*
X-33495238Y-1395238D01*
X-33447619Y-1585714D01*
X-33447619Y-1919047D01*
X-33495238Y-2109523D01*
X-33590476Y-2204761D01*
X-33685714Y-2252380D01*
X-33876190Y-2252380D01*
X-33971428Y-2204761D01*
X-34066666Y-2109523D01*
X-34114285Y-1919047D01*
X-34114285Y-1585714D01*
X-34066666Y-1395238D01*
X-33971428Y-1300000D01*
X-33876190Y-1252380D01*
X-33066666Y-1347619D02*
X-33019047Y-1300000D01*
X-32923809Y-1252380D01*
X-32685714Y-1252380D01*
X-32590476Y-1300000D01*
X-32542857Y-1347619D01*
X-32495238Y-1442857D01*
X-32495238Y-1538095D01*
X-32542857Y-1680952D01*
X-33114285Y-2252380D01*
X-32495238Y-2252380D01*
X-31352380Y-2204761D02*
X-31209523Y-2252380D01*
X-30971428Y-2252380D01*
X-30876190Y-2204761D01*
X-30828571Y-2157142D01*
X-30780952Y-2061904D01*
X-30780952Y-1966666D01*
X-30828571Y-1871428D01*
X-30876190Y-1823809D01*
X-30971428Y-1776190D01*
X-31161904Y-1728571D01*
X-31257142Y-1680952D01*
X-31304761Y-1633333D01*
X-31352380Y-1538095D01*
X-31352380Y-1442857D01*
X-31304761Y-1347619D01*
X-31257142Y-1300000D01*
X-31161904Y-1252380D01*
X-30923809Y-1252380D01*
X-30780952Y-1300000D01*
X-29971428Y-2204761D02*
X-30066666Y-2252380D01*
X-30257142Y-2252380D01*
X-30352380Y-2204761D01*
X-30400000Y-2109523D01*
X-30400000Y-1728571D01*
X-30352380Y-1633333D01*
X-30257142Y-1585714D01*
X-30066666Y-1585714D01*
X-29971428Y-1633333D01*
X-29923809Y-1728571D01*
X-29923809Y-1823809D01*
X-30400000Y-1919047D01*
X-29495238Y-1585714D02*
X-29495238Y-2252380D01*
X-29495238Y-1680952D02*
X-29447619Y-1633333D01*
X-29352380Y-1585714D01*
X-29209523Y-1585714D01*
X-29114285Y-1633333D01*
X-29066666Y-1728571D01*
X-29066666Y-2252380D01*
X-28638095Y-2204761D02*
X-28542857Y-2252380D01*
X-28352380Y-2252380D01*
X-28257142Y-2204761D01*
X-28209523Y-2109523D01*
X-28209523Y-2061904D01*
X-28257142Y-1966666D01*
X-28352380Y-1919047D01*
X-28495238Y-1919047D01*
X-28590476Y-1871428D01*
X-28638095Y-1776190D01*
X-28638095Y-1728571D01*
X-28590476Y-1633333D01*
X-28495238Y-1585714D01*
X-28352380Y-1585714D01*
X-28257142Y-1633333D01*
X-27638095Y-2252380D02*
X-27733333Y-2204761D01*
X-27780952Y-2157142D01*
X-27828571Y-2061904D01*
X-27828571Y-1776190D01*
X-27780952Y-1680952D01*
X-27733333Y-1633333D01*
X-27638095Y-1585714D01*
X-27495238Y-1585714D01*
X-27399999Y-1633333D01*
X-27352380Y-1680952D01*
X-27304761Y-1776190D01*
X-27304761Y-2061904D01*
X-27352380Y-2157142D01*
X-27399999Y-2204761D01*
X-27495238Y-2252380D01*
X-27638095Y-2252380D01*
X-26876190Y-2252380D02*
X-26876190Y-1585714D01*
X-26876190Y-1776190D02*
X-26828571Y-1680952D01*
X-26780952Y-1633333D01*
X-26685714Y-1585714D01*
X-26590476Y-1585714D01*
X-20671428Y-14852380D02*
X-21004761Y-14376190D01*
X-21242857Y-14852380D02*
X-21242857Y-13852380D01*
X-20861904Y-13852380D01*
X-20766666Y-13900000D01*
X-20719047Y-13947619D01*
X-20671428Y-14042857D01*
X-20671428Y-14185714D01*
X-20719047Y-14280952D01*
X-20766666Y-14328571D01*
X-20861904Y-14376190D01*
X-21242857Y-14376190D01*
X-20385714Y-13852380D02*
X-19814285Y-13852380D01*
X-20100000Y-14852380D02*
X-20100000Y-13852380D01*
X-18909523Y-14757142D02*
X-18957142Y-14804761D01*
X-19100000Y-14852380D01*
X-19195238Y-14852380D01*
X-19338095Y-14804761D01*
X-19433333Y-14709523D01*
X-19480952Y-14614285D01*
X-19528571Y-14423809D01*
X-19528571Y-14280952D01*
X-19480952Y-14090476D01*
X-19433333Y-13995238D01*
X-19338095Y-13900000D01*
X-19195238Y-13852380D01*
X-19100000Y-13852380D01*
X-18957142Y-13900000D01*
X-18909523Y-13947619D01*
X-48904761Y-13752380D02*
X-48333333Y-13752380D01*
X-48619047Y-14752380D02*
X-48619047Y-13752380D01*
X-47619047Y-14704761D02*
X-47714285Y-14752380D01*
X-47904761Y-14752380D01*
X-48000000Y-14704761D01*
X-48047619Y-14609523D01*
X-48047619Y-14228571D01*
X-48000000Y-14133333D01*
X-47904761Y-14085714D01*
X-47714285Y-14085714D01*
X-47619047Y-14133333D01*
X-47571428Y-14228571D01*
X-47571428Y-14323809D01*
X-48047619Y-14419047D01*
X-47142857Y-14752380D02*
X-47142857Y-14085714D01*
X-47142857Y-14180952D02*
X-47095238Y-14133333D01*
X-47000000Y-14085714D01*
X-46857142Y-14085714D01*
X-46761904Y-14133333D01*
X-46714285Y-14228571D01*
X-46714285Y-14752380D01*
X-46714285Y-14228571D02*
X-46666666Y-14133333D01*
X-46571428Y-14085714D01*
X-46428571Y-14085714D01*
X-46333333Y-14133333D01*
X-46285714Y-14228571D01*
X-46285714Y-14752380D01*
X-45809523Y-14085714D02*
X-45809523Y-15085714D01*
X-45809523Y-14133333D02*
X-45714285Y-14085714D01*
X-45523809Y-14085714D01*
X-45428571Y-14133333D01*
X-45380952Y-14180952D01*
X-45333333Y-14276190D01*
X-45333333Y-14561904D01*
X-45380952Y-14657142D01*
X-45428571Y-14704761D01*
X-45523809Y-14752380D01*
X-45714285Y-14752380D01*
X-45809523Y-14704761D01*
X-44857142Y-14704761D02*
X-44857142Y-14752380D01*
X-44904761Y-14847619D01*
X-44952380Y-14895238D01*
X-43666666Y-14752380D02*
X-43666666Y-13752380D01*
X-43666666Y-14228571D02*
X-43095238Y-14228571D01*
X-43095238Y-14752380D02*
X-43095238Y-13752380D01*
X-42190476Y-14085714D02*
X-42190476Y-14752380D01*
X-42619047Y-14085714D02*
X-42619047Y-14609523D01*
X-42571428Y-14704761D01*
X-42476190Y-14752380D01*
X-42333333Y-14752380D01*
X-42238095Y-14704761D01*
X-42190476Y-14657142D01*
X-41714285Y-14752380D02*
X-41714285Y-14085714D01*
X-41714285Y-14180952D02*
X-41666666Y-14133333D01*
X-41571428Y-14085714D01*
X-41428571Y-14085714D01*
X-41333333Y-14133333D01*
X-41285714Y-14228571D01*
X-41285714Y-14752380D01*
X-41285714Y-14228571D02*
X-41238095Y-14133333D01*
X-41142857Y-14085714D01*
X-41000000Y-14085714D01*
X-40904761Y-14133333D01*
X-40857142Y-14228571D01*
X-40857142Y-14752380D01*
X-40380952Y-14752380D02*
X-40380952Y-14085714D01*
X-40380952Y-13752380D02*
X-40428571Y-13800000D01*
X-40380952Y-13847619D01*
X-40333333Y-13800000D01*
X-40380952Y-13752380D01*
X-40380952Y-13847619D01*
X-39857142Y-14704761D02*
X-39857142Y-14752380D01*
X-39904761Y-14847619D01*
X-39952380Y-14895238D01*
X-38666666Y-14752380D02*
X-38666666Y-13752380D01*
X-38285714Y-13752380D01*
X-38190476Y-13800000D01*
X-38142857Y-13847619D01*
X-38095238Y-13942857D01*
X-38095238Y-14085714D01*
X-38142857Y-14180952D01*
X-38190476Y-14228571D01*
X-38285714Y-14276190D01*
X-38666666Y-14276190D01*
X-37666666Y-14752380D02*
X-37666666Y-14085714D01*
X-37666666Y-14276190D02*
X-37619047Y-14180952D01*
X-37571428Y-14133333D01*
X-37476190Y-14085714D01*
X-37380952Y-14085714D01*
X-36666666Y-14704761D02*
X-36761904Y-14752380D01*
X-36952380Y-14752380D01*
X-37047619Y-14704761D01*
X-37095238Y-14609523D01*
X-37095238Y-14228571D01*
X-37047619Y-14133333D01*
X-36952380Y-14085714D01*
X-36761904Y-14085714D01*
X-36666666Y-14133333D01*
X-36619047Y-14228571D01*
X-36619047Y-14323809D01*
X-37095238Y-14419047D01*
X-36238095Y-14704761D02*
X-36142857Y-14752380D01*
X-35952380Y-14752380D01*
X-35857142Y-14704761D01*
X-35809523Y-14609523D01*
X-35809523Y-14561904D01*
X-35857142Y-14466666D01*
X-35952380Y-14419047D01*
X-36095238Y-14419047D01*
X-36190476Y-14371428D01*
X-36238095Y-14276190D01*
X-36238095Y-14228571D01*
X-36190476Y-14133333D01*
X-36095238Y-14085714D01*
X-35952380Y-14085714D01*
X-35857142Y-14133333D01*
X-35428571Y-14704761D02*
X-35333333Y-14752380D01*
X-35142857Y-14752380D01*
X-35047619Y-14704761D01*
X-35000000Y-14609523D01*
X-35000000Y-14561904D01*
X-35047619Y-14466666D01*
X-35142857Y-14419047D01*
X-35285714Y-14419047D01*
X-35380952Y-14371428D01*
X-35428571Y-14276190D01*
X-35428571Y-14228571D01*
X-35380952Y-14133333D01*
X-35285714Y-14085714D01*
X-35142857Y-14085714D01*
X-35047619Y-14133333D01*
X-33857142Y-14704761D02*
X-33714285Y-14752380D01*
X-33476190Y-14752380D01*
X-33380952Y-14704761D01*
X-33333333Y-14657142D01*
X-33285714Y-14561904D01*
X-33285714Y-14466666D01*
X-33333333Y-14371428D01*
X-33380952Y-14323809D01*
X-33476190Y-14276190D01*
X-33666666Y-14228571D01*
X-33761904Y-14180952D01*
X-33809523Y-14133333D01*
X-33857142Y-14038095D01*
X-33857142Y-13942857D01*
X-33809523Y-13847619D01*
X-33761904Y-13800000D01*
X-33666666Y-13752380D01*
X-33428571Y-13752380D01*
X-33285714Y-13800000D01*
X-32476190Y-14704761D02*
X-32571428Y-14752380D01*
X-32761904Y-14752380D01*
X-32857142Y-14704761D01*
X-32904761Y-14609523D01*
X-32904761Y-14228571D01*
X-32857142Y-14133333D01*
X-32761904Y-14085714D01*
X-32571428Y-14085714D01*
X-32476190Y-14133333D01*
X-32428571Y-14228571D01*
X-32428571Y-14323809D01*
X-32904761Y-14419047D01*
X-32000000Y-14085714D02*
X-32000000Y-14752380D01*
X-32000000Y-14180952D02*
X-31952380Y-14133333D01*
X-31857142Y-14085714D01*
X-31714285Y-14085714D01*
X-31619047Y-14133333D01*
X-31571428Y-14228571D01*
X-31571428Y-14752380D01*
X-31142857Y-14704761D02*
X-31047619Y-14752380D01*
X-30857142Y-14752380D01*
X-30761904Y-14704761D01*
X-30714285Y-14609523D01*
X-30714285Y-14561904D01*
X-30761904Y-14466666D01*
X-30857142Y-14419047D01*
X-31000000Y-14419047D01*
X-31095238Y-14371428D01*
X-31142857Y-14276190D01*
X-31142857Y-14228571D01*
X-31095238Y-14133333D01*
X-31000000Y-14085714D01*
X-30857142Y-14085714D01*
X-30761904Y-14133333D01*
X-30142857Y-14752380D02*
X-30238095Y-14704761D01*
X-30285714Y-14657142D01*
X-30333333Y-14561904D01*
X-30333333Y-14276190D01*
X-30285714Y-14180952D01*
X-30238095Y-14133333D01*
X-30142857Y-14085714D01*
X-30000000Y-14085714D01*
X-29904761Y-14133333D01*
X-29857142Y-14180952D01*
X-29809523Y-14276190D01*
X-29809523Y-14561904D01*
X-29857142Y-14657142D01*
X-29904761Y-14704761D01*
X-30000000Y-14752380D01*
X-30142857Y-14752380D01*
X-29380952Y-14752380D02*
X-29380952Y-14085714D01*
X-29380952Y-14276190D02*
X-29333333Y-14180952D01*
X-29285714Y-14133333D01*
X-29190476Y-14085714D01*
X-29095238Y-14085714D01*
X-34880952Y-41357142D02*
X-34928571Y-41404761D01*
X-35071428Y-41452380D01*
X-35166666Y-41452380D01*
X-35309523Y-41404761D01*
X-35404761Y-41309523D01*
X-35452380Y-41214285D01*
X-35499999Y-41023809D01*
X-35499999Y-40880952D01*
X-35452380Y-40690476D01*
X-35404761Y-40595238D01*
X-35309523Y-40500000D01*
X-35166666Y-40452380D01*
X-35071428Y-40452380D01*
X-34928571Y-40500000D01*
X-34880952Y-40547619D01*
X-34452380Y-41452380D02*
X-34452380Y-40452380D01*
X-34023809Y-41452380D02*
X-34023809Y-40928571D01*
X-34071428Y-40833333D01*
X-34166666Y-40785714D01*
X-34309523Y-40785714D01*
X-34404761Y-40833333D01*
X-34452380Y-40880952D01*
X-33119047Y-41452380D02*
X-33119047Y-40928571D01*
X-33166666Y-40833333D01*
X-33261904Y-40785714D01*
X-33452380Y-40785714D01*
X-33547619Y-40833333D01*
X-33119047Y-41404761D02*
X-33214285Y-41452380D01*
X-33452380Y-41452380D01*
X-33547619Y-41404761D01*
X-33595238Y-41309523D01*
X-33595238Y-41214285D01*
X-33547619Y-41119047D01*
X-33452380Y-41071428D01*
X-33214285Y-41071428D01*
X-33119047Y-41023809D01*
X-32642857Y-41452380D02*
X-32642857Y-40785714D01*
X-32642857Y-40976190D02*
X-32595238Y-40880952D01*
X-32547619Y-40833333D01*
X-32452380Y-40785714D01*
X-32357142Y-40785714D01*
X-31595238Y-41452380D02*
X-31595238Y-40928571D01*
X-31642857Y-40833333D01*
X-31738095Y-40785714D01*
X-31928571Y-40785714D01*
X-32023809Y-40833333D01*
X-31595238Y-41404761D02*
X-31690476Y-41452380D01*
X-31928571Y-41452380D01*
X-32023809Y-41404761D01*
X-32071428Y-41309523D01*
X-32071428Y-41214285D01*
X-32023809Y-41119047D01*
X-31928571Y-41071428D01*
X-31690476Y-41071428D01*
X-31595238Y-41023809D01*
X-30690476Y-41404761D02*
X-30785714Y-41452380D01*
X-30976190Y-41452380D01*
X-31071428Y-41404761D01*
X-31119047Y-41357142D01*
X-31166666Y-41261904D01*
X-31166666Y-40976190D01*
X-31119047Y-40880952D01*
X-31071428Y-40833333D01*
X-30976190Y-40785714D01*
X-30785714Y-40785714D01*
X-30690476Y-40833333D01*
X-30404761Y-40785714D02*
X-30023809Y-40785714D01*
X-30261904Y-40452380D02*
X-30261904Y-41309523D01*
X-30214285Y-41404761D01*
X-30119047Y-41452380D01*
X-30023809Y-41452380D01*
X-29309523Y-41404761D02*
X-29404761Y-41452380D01*
X-29595238Y-41452380D01*
X-29690476Y-41404761D01*
X-29738095Y-41309523D01*
X-29738095Y-40928571D01*
X-29690476Y-40833333D01*
X-29595238Y-40785714D01*
X-29404761Y-40785714D01*
X-29309523Y-40833333D01*
X-29261904Y-40928571D01*
X-29261904Y-41023809D01*
X-29738095Y-41119047D01*
X-28833333Y-41452380D02*
X-28833333Y-40785714D01*
X-28833333Y-40976190D02*
X-28785714Y-40880952D01*
X-28738095Y-40833333D01*
X-28642857Y-40785714D01*
X-28547619Y-40785714D01*
X-27452380Y-41452380D02*
X-27452380Y-40452380D01*
X-27214285Y-40452380D01*
X-27071428Y-40500000D01*
X-26976190Y-40595238D01*
X-26928571Y-40690476D01*
X-26880952Y-40880952D01*
X-26880952Y-41023809D01*
X-26928571Y-41214285D01*
X-26976190Y-41309523D01*
X-27071428Y-41404761D01*
X-27214285Y-41452380D01*
X-27452380Y-41452380D01*
X-26452380Y-41452380D02*
X-26452380Y-40785714D01*
X-26452380Y-40452380D02*
X-26499999Y-40500000D01*
X-26452380Y-40547619D01*
X-26404761Y-40500000D01*
X-26452380Y-40452380D01*
X-26452380Y-40547619D01*
X-26023809Y-41404761D02*
X-25928571Y-41452380D01*
X-25738095Y-41452380D01*
X-25642857Y-41404761D01*
X-25595238Y-41309523D01*
X-25595238Y-41261904D01*
X-25642857Y-41166666D01*
X-25738095Y-41119047D01*
X-25880952Y-41119047D01*
X-25976190Y-41071428D01*
X-26023809Y-40976190D01*
X-26023809Y-40928571D01*
X-25976190Y-40833333D01*
X-25880952Y-40785714D01*
X-25738095Y-40785714D01*
X-25642857Y-40833333D01*
X-25166666Y-40785714D02*
X-25166666Y-41785714D01*
X-25166666Y-40833333D02*
X-25071428Y-40785714D01*
X-24880952Y-40785714D01*
X-24785714Y-40833333D01*
X-24738095Y-40880952D01*
X-24690476Y-40976190D01*
X-24690476Y-41261904D01*
X-24738095Y-41357142D01*
X-24785714Y-41404761D01*
X-24880952Y-41452380D01*
X-25071428Y-41452380D01*
X-25166666Y-41404761D01*
X-24119047Y-41452380D02*
X-24214285Y-41404761D01*
X-24261904Y-41309523D01*
X-24261904Y-40452380D01*
X-23309523Y-41452380D02*
X-23309523Y-40928571D01*
X-23357142Y-40833333D01*
X-23452380Y-40785714D01*
X-23642857Y-40785714D01*
X-23738095Y-40833333D01*
X-23309523Y-41404761D02*
X-23404761Y-41452380D01*
X-23642857Y-41452380D01*
X-23738095Y-41404761D01*
X-23785714Y-41309523D01*
X-23785714Y-41214285D01*
X-23738095Y-41119047D01*
X-23642857Y-41071428D01*
X-23404761Y-41071428D01*
X-23309523Y-41023809D01*
X-22928571Y-40785714D02*
X-22690476Y-41452380D01*
X-22452380Y-40785714D02*
X-22690476Y-41452380D01*
X-22785714Y-41690476D01*
X-22833333Y-41738095D01*
X-22928571Y-41785714D01*
X32904761Y-42752380D02*
X33476190Y-42752380D01*
X33190476Y-43752380D02*
X33190476Y-42752380D01*
X34142857Y-43228571D02*
X33809523Y-43228571D01*
X33809523Y-43752380D02*
X33809523Y-42752380D01*
X34285714Y-42752380D01*
X34523809Y-42752380D02*
X35095238Y-42752380D01*
X34809523Y-43752380D02*
X34809523Y-42752380D01*
X30780952Y20347619D02*
X30780952Y21347619D01*
X31114285Y20633333D01*
X31447619Y21347619D01*
X31447619Y20347619D01*
X31923809Y20347619D02*
X31923809Y21014285D01*
X31923809Y21347619D02*
X31876190Y21300000D01*
X31923809Y21252380D01*
X31971428Y21300000D01*
X31923809Y21347619D01*
X31923809Y21252380D01*
X32828571Y20395238D02*
X32733333Y20347619D01*
X32542857Y20347619D01*
X32447619Y20395238D01*
X32400000Y20442857D01*
X32352380Y20538095D01*
X32352380Y20823809D01*
X32400000Y20919047D01*
X32447619Y20966666D01*
X32542857Y21014285D01*
X32733333Y21014285D01*
X32828571Y20966666D01*
X33257142Y20347619D02*
X33257142Y21014285D01*
X33257142Y20823809D02*
X33304761Y20919047D01*
X33352380Y20966666D01*
X33447619Y21014285D01*
X33542857Y21014285D01*
X34019047Y20347619D02*
X33923809Y20395238D01*
X33876190Y20442857D01*
X33828571Y20538095D01*
X33828571Y20823809D01*
X33876190Y20919047D01*
X33923809Y20966666D01*
X34019047Y21014285D01*
X34161904Y21014285D01*
X34257142Y20966666D01*
X34304761Y20919047D01*
X34352380Y20823809D01*
X34352380Y20538095D01*
X34304761Y20442857D01*
X34257142Y20395238D01*
X34161904Y20347619D01*
X34019047Y20347619D01*
X35495238Y20395238D02*
X35638095Y20347619D01*
X35876190Y20347619D01*
X35971428Y20395238D01*
X36019047Y20442857D01*
X36066666Y20538095D01*
X36066666Y20633333D01*
X36019047Y20728571D01*
X35971428Y20776190D01*
X35876190Y20823809D01*
X35685714Y20871428D01*
X35590476Y20919047D01*
X35542857Y20966666D01*
X35495238Y21061904D01*
X35495238Y21157142D01*
X35542857Y21252380D01*
X35590476Y21300000D01*
X35685714Y21347619D01*
X35923809Y21347619D01*
X36066666Y21300000D01*
X36495238Y20347619D02*
X36495238Y21347619D01*
X36733333Y21347619D01*
X36876190Y21300000D01*
X36971428Y21204761D01*
X37019047Y21109523D01*
X37066666Y20919047D01*
X37066666Y20776190D01*
X37019047Y20585714D01*
X36971428Y20490476D01*
X36876190Y20395238D01*
X36733333Y20347619D01*
X36495238Y20347619D01*
X-1000000Y1547619D02*
X-1000000Y2547619D01*
X-761904Y2547619D01*
X-619047Y2500000D01*
X-523809Y2404761D01*
X-476190Y2309523D01*
X-428571Y2119047D01*
X-428571Y1976190D01*
X-476190Y1785714D01*
X-523809Y1690476D01*
X-619047Y1595238D01*
X-761904Y1547619D01*
X-1000000Y1547619D01*
X0Y1547619D02*
X0Y2547619D01*
X476190Y1547619D02*
X476190Y2547619D01*
X857142Y2547619D01*
X952380Y2500000D01*
X1000000Y2452380D01*
X1047619Y2357142D01*
X1047619Y2214285D01*
X1000000Y2119047D01*
X952380Y2071428D01*
X857142Y2023809D01*
X476190Y2023809D01*
X1476190Y1928571D02*
X2238095Y1928571D01*
X2714285Y2071428D02*
X3047619Y2071428D01*
X3190476Y1547619D02*
X2714285Y1547619D01*
X2714285Y2547619D01*
X3190476Y2547619D01*
X3571428Y1595238D02*
X3714285Y1547619D01*
X3952380Y1547619D01*
X4047619Y1595238D01*
X4095238Y1642857D01*
X4142857Y1738095D01*
X4142857Y1833333D01*
X4095238Y1928571D01*
X4047619Y1976190D01*
X3952380Y2023809D01*
X3761904Y2071428D01*
X3666666Y2119047D01*
X3619047Y2166666D01*
X3571428Y2261904D01*
X3571428Y2357142D01*
X3619047Y2452380D01*
X3666666Y2500000D01*
X3761904Y2547619D01*
X4000000Y2547619D01*
X4142857Y2500000D01*
X4571428Y1547619D02*
X4571428Y2547619D01*
X4952380Y2547619D01*
X5047619Y2500000D01*
X5095238Y2452380D01*
X5142857Y2357142D01*
X5142857Y2214285D01*
X5095238Y2119047D01*
X5047619Y2071428D01*
X4952380Y2023809D01*
X4571428Y2023809D01*
X5476190Y2547619D02*
X6095238Y2547619D01*
X5761904Y2166666D01*
X5904761Y2166666D01*
X6000000Y2119047D01*
X6047619Y2071428D01*
X6095238Y1976190D01*
X6095238Y1738095D01*
X6047619Y1642857D01*
X6000000Y1595238D01*
X5904761Y1547619D01*
X5619047Y1547619D01*
X5523809Y1595238D01*
X5476190Y1642857D01*
X6476190Y2452380D02*
X6523809Y2500000D01*
X6619047Y2547619D01*
X6857142Y2547619D01*
X6952380Y2500000D01*
X7000000Y2452380D01*
X7047619Y2357142D01*
X7047619Y2261904D01*
X7000000Y2119047D01*
X6428571Y1547619D01*
X7047619Y1547619D01*
X-39861904Y19547619D02*
X-39861904Y20547619D01*
X-39623809Y20547619D01*
X-39480952Y20500000D01*
X-39385714Y20404761D01*
X-39338095Y20309523D01*
X-39290476Y20119047D01*
X-39290476Y19976190D01*
X-39338095Y19785714D01*
X-39385714Y19690476D01*
X-39480952Y19595238D01*
X-39623809Y19547619D01*
X-39861904Y19547619D01*
X-38338095Y20500000D02*
X-38433333Y20547619D01*
X-38576190Y20547619D01*
X-38719047Y20500000D01*
X-38814285Y20404761D01*
X-38861904Y20309523D01*
X-38909523Y20119047D01*
X-38909523Y19976190D01*
X-38861904Y19785714D01*
X-38814285Y19690476D01*
X-38719047Y19595238D01*
X-38576190Y19547619D01*
X-38480952Y19547619D01*
X-38338095Y19595238D01*
X-38290476Y19642857D01*
X-38290476Y19976190D01*
X-38480952Y19976190D01*
X-37528571Y20071428D02*
X-37385714Y20023809D01*
X-37338095Y19976190D01*
X-37290476Y19880952D01*
X-37290476Y19738095D01*
X-37338095Y19642857D01*
X-37385714Y19595238D01*
X-37480952Y19547619D01*
X-37861904Y19547619D01*
X-37861904Y20547619D01*
X-37528571Y20547619D01*
X-37433333Y20500000D01*
X-37385714Y20452380D01*
X-37338095Y20357142D01*
X-37338095Y20261904D01*
X-37385714Y20166666D01*
X-37433333Y20119047D01*
X-37528571Y20071428D01*
X-37861904Y20071428D01*
X-36861904Y19928571D02*
X-36100000Y19928571D01*
X-35623809Y20071428D02*
X-35290476Y20071428D01*
X-35147619Y19547619D02*
X-35623809Y19547619D01*
X-35623809Y20547619D01*
X-35147619Y20547619D01*
X-34766666Y19595238D02*
X-34623809Y19547619D01*
X-34385714Y19547619D01*
X-34290476Y19595238D01*
X-34242857Y19642857D01*
X-34195238Y19738095D01*
X-34195238Y19833333D01*
X-34242857Y19928571D01*
X-34290476Y19976190D01*
X-34385714Y20023809D01*
X-34576190Y20071428D01*
X-34671428Y20119047D01*
X-34719047Y20166666D01*
X-34766666Y20261904D01*
X-34766666Y20357142D01*
X-34719047Y20452380D01*
X-34671428Y20500000D01*
X-34576190Y20547619D01*
X-34338095Y20547619D01*
X-34195238Y20500000D01*
X-33766666Y19547619D02*
X-33766666Y20547619D01*
X-33385714Y20547619D01*
X-33290476Y20500000D01*
X-33242857Y20452380D01*
X-33195238Y20357142D01*
X-33195238Y20214285D01*
X-33242857Y20119047D01*
X-33290476Y20071428D01*
X-33385714Y20023809D01*
X-33766666Y20023809D01*
X-32861904Y20547619D02*
X-32242857Y20547619D01*
X-32576190Y20166666D01*
X-32433333Y20166666D01*
X-32338095Y20119047D01*
X-32290476Y20071428D01*
X-32242857Y19976190D01*
X-32242857Y19738095D01*
X-32290476Y19642857D01*
X-32338095Y19595238D01*
X-32433333Y19547619D01*
X-32719047Y19547619D01*
X-32814285Y19595238D01*
X-32861904Y19642857D01*
X-31861904Y20452380D02*
X-31814285Y20500000D01*
X-31719047Y20547619D01*
X-31480952Y20547619D01*
X-31385714Y20500000D01*
X-31338095Y20452380D01*
X-31290476Y20357142D01*
X-31290476Y20261904D01*
X-31338095Y20119047D01*
X-31909523Y19547619D01*
X-31290476Y19547619D01*
X-23823809Y26547619D02*
X-24300000Y26547619D01*
X-24300000Y27547619D01*
X-23490476Y26547619D02*
X-23490476Y27214285D01*
X-23490476Y27547619D02*
X-23538095Y27500000D01*
X-23490476Y27452380D01*
X-23442857Y27500000D01*
X-23490476Y27547619D01*
X-23490476Y27452380D01*
X-22585714Y27214285D02*
X-22585714Y26404761D01*
X-22633333Y26309523D01*
X-22680952Y26261904D01*
X-22776190Y26214285D01*
X-22919047Y26214285D01*
X-23014285Y26261904D01*
X-22585714Y26595238D02*
X-22680952Y26547619D01*
X-22871428Y26547619D01*
X-22966666Y26595238D01*
X-23014285Y26642857D01*
X-23061904Y26738095D01*
X-23061904Y27023809D01*
X-23014285Y27119047D01*
X-22966666Y27166666D01*
X-22871428Y27214285D01*
X-22680952Y27214285D01*
X-22585714Y27166666D01*
X-22109523Y26547619D02*
X-22109523Y27547619D01*
X-21680952Y26547619D02*
X-21680952Y27071428D01*
X-21728571Y27166666D01*
X-21823809Y27214285D01*
X-21966666Y27214285D01*
X-22061904Y27166666D01*
X-22109523Y27119047D01*
X-21347619Y27214285D02*
X-20966666Y27214285D01*
X-21204761Y27547619D02*
X-21204761Y26690476D01*
X-21157142Y26595238D01*
X-21061904Y26547619D01*
X-20966666Y26547619D01*
X-19919047Y26595238D02*
X-19776190Y26547619D01*
X-19538095Y26547619D01*
X-19442857Y26595238D01*
X-19395238Y26642857D01*
X-19347619Y26738095D01*
X-19347619Y26833333D01*
X-19395238Y26928571D01*
X-19442857Y26976190D01*
X-19538095Y27023809D01*
X-19728571Y27071428D01*
X-19823809Y27119047D01*
X-19871428Y27166666D01*
X-19919047Y27261904D01*
X-19919047Y27357142D01*
X-19871428Y27452380D01*
X-19823809Y27500000D01*
X-19728571Y27547619D01*
X-19490476Y27547619D01*
X-19347619Y27500000D01*
X-18538095Y26595238D02*
X-18633333Y26547619D01*
X-18823809Y26547619D01*
X-18919047Y26595238D01*
X-18966666Y26690476D01*
X-18966666Y27071428D01*
X-18919047Y27166666D01*
X-18823809Y27214285D01*
X-18633333Y27214285D01*
X-18538095Y27166666D01*
X-18490476Y27071428D01*
X-18490476Y26976190D01*
X-18966666Y26880952D01*
X-18061904Y27214285D02*
X-18061904Y26547619D01*
X-18061904Y27119047D02*
X-18014285Y27166666D01*
X-17919047Y27214285D01*
X-17776190Y27214285D01*
X-17680952Y27166666D01*
X-17633333Y27071428D01*
X-17633333Y26547619D01*
X-17204761Y26595238D02*
X-17109523Y26547619D01*
X-16919047Y26547619D01*
X-16823809Y26595238D01*
X-16776190Y26690476D01*
X-16776190Y26738095D01*
X-16823809Y26833333D01*
X-16919047Y26880952D01*
X-17061904Y26880952D01*
X-17157142Y26928571D01*
X-17204761Y27023809D01*
X-17204761Y27071428D01*
X-17157142Y27166666D01*
X-17061904Y27214285D01*
X-16919047Y27214285D01*
X-16823809Y27166666D01*
X-16204761Y26547619D02*
X-16300000Y26595238D01*
X-16347619Y26642857D01*
X-16395238Y26738095D01*
X-16395238Y27023809D01*
X-16347619Y27119047D01*
X-16300000Y27166666D01*
X-16204761Y27214285D01*
X-16061904Y27214285D01*
X-15966666Y27166666D01*
X-15919047Y27119047D01*
X-15871428Y27023809D01*
X-15871428Y26738095D01*
X-15919047Y26642857D01*
X-15966666Y26595238D01*
X-16061904Y26547619D01*
X-16204761Y26547619D01*
X-15442857Y26547619D02*
X-15442857Y27214285D01*
X-15442857Y27023809D02*
X-15395238Y27119047D01*
X-15347619Y27166666D01*
X-15252380Y27214285D01*
X-15157142Y27214285D01*
D12*
X-43300000Y20900000D02*
X-28100000Y20900000D01*
X-43300000Y41100000D02*
X-43300000Y20900000D01*
X-28100000Y41100000D02*
X-43300000Y41100000D01*
X-28100000Y20900000D02*
X-28100000Y41100000D01*
X15700000Y41300000D02*
X15700000Y3100000D01*
X-9700000Y41300000D02*
X15700000Y41300000D01*
X-9700000Y3100000D02*
X-9700000Y41300000D01*
X15700000Y3100000D02*
X-9700000Y3100000D01*
D11*
X-13876190Y-427380D02*
X-13876190Y572619D01*
X-13447619Y477380D02*
X-13400000Y525000D01*
X-13304761Y572619D01*
X-13066666Y572619D01*
X-12971428Y525000D01*
X-12923809Y477380D01*
X-12876190Y382142D01*
X-12876190Y286904D01*
X-12923809Y144047D01*
X-13495238Y-427380D01*
X-12876190Y-427380D01*
X-11876190Y-332142D02*
X-11923809Y-379761D01*
X-12066666Y-427380D01*
X-12161904Y-427380D01*
X-12304761Y-379761D01*
X-12400000Y-284523D01*
X-12447619Y-189285D01*
X-12495238Y1190D01*
X-12495238Y144047D01*
X-12447619Y334523D01*
X-12400000Y429761D01*
X-12304761Y525000D01*
X-12161904Y572619D01*
X-12066666Y572619D01*
X-11923809Y525000D01*
X-11876190Y477380D01*
X-15661904Y-2077380D02*
X-15661904Y-1077380D01*
X-15280952Y-1077380D01*
X-15185714Y-1125000D01*
X-15138095Y-1172619D01*
X-15090476Y-1267857D01*
X-15090476Y-1410714D01*
X-15138095Y-1505952D01*
X-15185714Y-1553571D01*
X-15280952Y-1601190D01*
X-15661904Y-1601190D01*
X-14233333Y-1410714D02*
X-14233333Y-2077380D01*
X-14661904Y-1410714D02*
X-14661904Y-1934523D01*
X-14614285Y-2029761D01*
X-14519047Y-2077380D01*
X-14376190Y-2077380D01*
X-14280952Y-2029761D01*
X-14233333Y-1982142D01*
X-13614285Y-2077380D02*
X-13709523Y-2029761D01*
X-13757142Y-1934523D01*
X-13757142Y-1077380D01*
X-13090476Y-2077380D02*
X-13185714Y-2029761D01*
X-13233333Y-1934523D01*
X-13233333Y-1077380D01*
X-12709523Y-1696428D02*
X-11947619Y-1696428D01*
X-11042857Y-1410714D02*
X-11042857Y-2077380D01*
X-11471428Y-1410714D02*
X-11471428Y-1934523D01*
X-11423809Y-2029761D01*
X-11328571Y-2077380D01*
X-11185714Y-2077380D01*
X-11090476Y-2029761D01*
X-11042857Y-1982142D01*
X-10566666Y-1410714D02*
X-10566666Y-2410714D01*
X-10566666Y-1458333D02*
X-10471428Y-1410714D01*
X-10280952Y-1410714D01*
X-10185714Y-1458333D01*
X-10138095Y-1505952D01*
X-10090476Y-1601190D01*
X-10090476Y-1886904D01*
X-10138095Y-1982142D01*
X-10185714Y-2029761D01*
X-10280952Y-2077380D01*
X-10471428Y-2077380D01*
X-10566666Y-2029761D01*
D12*
%TO.C,C1*%
X-13649878Y-26400000D02*
G75*
G03*
X-13649878Y-26400000I-10250122J0D01*
G01*
%TO.C,R14*%
X-18100000Y-36700000D02*
X-17900000Y-36500000D01*
X-17900000Y-36900000D02*
X-18100000Y-36700000D01*
X-17900000Y-36500000D02*
X-17900000Y-36900000D01*
X-19650000Y-37450000D02*
X-16350000Y-37450000D01*
X-19650000Y-35950000D02*
X-16350000Y-35950000D01*
X-16350000Y-35950000D02*
X-16350000Y-37450000D01*
X-19650000Y-35950000D02*
X-19650000Y-37450000D01*
%TO.C,R13*%
X34600000Y-30700000D02*
X34800000Y-30500000D01*
X34800000Y-30900000D02*
X34600000Y-30700000D01*
X34800000Y-30500000D02*
X34800000Y-30900000D01*
X33050000Y-31450000D02*
X36350000Y-31450000D01*
X33050000Y-29950000D02*
X36350000Y-29950000D01*
X36350000Y-29950000D02*
X36350000Y-31450000D01*
X33050000Y-29950000D02*
X33050000Y-31450000D01*
%TO.C,R12*%
X29700000Y-30700000D02*
X29900000Y-30500000D01*
X29900000Y-30900000D02*
X29700000Y-30700000D01*
X29900000Y-30500000D02*
X29900000Y-30900000D01*
X28150000Y-31450000D02*
X31450000Y-31450000D01*
X28150000Y-29950000D02*
X31450000Y-29950000D01*
X31450000Y-29950000D02*
X31450000Y-31450000D01*
X28150000Y-29950000D02*
X28150000Y-31450000D01*
%TO.C,R11*%
X41900000Y-37700000D02*
X42100000Y-37500000D01*
X42100000Y-37900000D02*
X41900000Y-37700000D01*
X42100000Y-37500000D02*
X42100000Y-37900000D01*
X40350000Y-38450000D02*
X43650000Y-38450000D01*
X40350000Y-36950000D02*
X43650000Y-36950000D01*
X43650000Y-36950000D02*
X43650000Y-38450000D01*
X40350000Y-36950000D02*
X40350000Y-38450000D01*
%TO.C,R10*%
X6900000Y-20000000D02*
X7100000Y-19800000D01*
X7100000Y-20200000D02*
X6900000Y-20000000D01*
X7100000Y-19800000D02*
X7100000Y-20200000D01*
X5350000Y-20750000D02*
X8650000Y-20750000D01*
X5350000Y-19250000D02*
X8650000Y-19250000D01*
X8650000Y-19250000D02*
X8650000Y-20750000D01*
X5350000Y-19250000D02*
X5350000Y-20750000D01*
%TO.C,R9*%
X2900000Y-20000000D02*
X3100000Y-19800000D01*
X3100000Y-20200000D02*
X2900000Y-20000000D01*
X3100000Y-19800000D02*
X3100000Y-20200000D01*
X1350000Y-20750000D02*
X4650000Y-20750000D01*
X1350000Y-19250000D02*
X4650000Y-19250000D01*
X4650000Y-19250000D02*
X4650000Y-20750000D01*
X1350000Y-19250000D02*
X1350000Y-20750000D01*
%TO.C,R8*%
X-1100000Y-20000000D02*
X-900000Y-19800000D01*
X-900000Y-20200000D02*
X-1100000Y-20000000D01*
X-900000Y-19800000D02*
X-900000Y-20200000D01*
X-2650000Y-20750000D02*
X650000Y-20750000D01*
X-2650000Y-19250000D02*
X650000Y-19250000D01*
X650000Y-19250000D02*
X650000Y-20750000D01*
X-2650000Y-19250000D02*
X-2650000Y-20750000D01*
%TO.C,R7*%
X5200000Y-41000000D02*
X5000000Y-41200000D01*
X5000000Y-40800000D02*
X5200000Y-41000000D01*
X5000000Y-41200000D02*
X5000000Y-40800000D01*
X6750000Y-40250000D02*
X3450000Y-40250000D01*
X6750000Y-41750000D02*
X3450000Y-41750000D01*
X3450000Y-41750000D02*
X3450000Y-40250000D01*
X6750000Y-41750000D02*
X6750000Y-40250000D01*
%TO.C,R6*%
X900000Y-41000000D02*
X1100000Y-40800000D01*
X1100000Y-41200000D02*
X900000Y-41000000D01*
X1100000Y-40800000D02*
X1100000Y-41200000D01*
X-650000Y-41750000D02*
X2650000Y-41750000D01*
X-650000Y-40250000D02*
X2650000Y-40250000D01*
X2650000Y-40250000D02*
X2650000Y-41750000D01*
X-650000Y-40250000D02*
X-650000Y-41750000D01*
%TO.C,R5*%
X-16300000Y-17100000D02*
X-16100000Y-16900000D01*
X-16100000Y-17300000D02*
X-16300000Y-17100000D01*
X-16100000Y-16900000D02*
X-16100000Y-17300000D01*
X-17850000Y-17850000D02*
X-14550000Y-17850000D01*
X-17850000Y-16350000D02*
X-14550000Y-16350000D01*
X-14550000Y-16350000D02*
X-14550000Y-17850000D01*
X-17850000Y-16350000D02*
X-17850000Y-17850000D01*
%TO.C,R4*%
X36900000Y25700000D02*
X37100000Y25900000D01*
X37100000Y25500000D02*
X36900000Y25700000D01*
X37100000Y25900000D02*
X37100000Y25500000D01*
X35350000Y24950000D02*
X38650000Y24950000D01*
X35350000Y26450000D02*
X38650000Y26450000D01*
X38650000Y26450000D02*
X38650000Y24950000D01*
X35350000Y26450000D02*
X35350000Y24950000D01*
%TO.C,R3*%
X-19950000Y35000000D02*
X-19750000Y35200000D01*
X-19750000Y34800000D02*
X-19950000Y35000000D01*
X-19750000Y35200000D02*
X-19750000Y34800000D01*
X-21500000Y34250000D02*
X-18200000Y34250000D01*
X-21500000Y35750000D02*
X-18200000Y35750000D01*
X-18200000Y35750000D02*
X-18200000Y34250000D01*
X-21500000Y35750000D02*
X-21500000Y34250000D01*
%TO.C,R2*%
X-8100000Y-3200000D02*
X-7900000Y-3000000D01*
X-7900000Y-3400000D02*
X-8100000Y-3200000D01*
X-7900000Y-3000000D02*
X-7900000Y-3400000D01*
X-9650000Y-3950000D02*
X-6350000Y-3950000D01*
X-9650000Y-2450000D02*
X-6350000Y-2450000D01*
X-6350000Y-2450000D02*
X-6350000Y-3950000D01*
X-9650000Y-2450000D02*
X-9650000Y-3950000D01*
%TO.C,R1*%
X-8100000Y0D02*
X-7900000Y200000D01*
X-7900000Y-200000D02*
X-8100000Y0D01*
X-7900000Y200000D02*
X-7900000Y-200000D01*
X-9650000Y-750000D02*
X-6350000Y-750000D01*
X-9650000Y750000D02*
X-6350000Y750000D01*
X-6350000Y750000D02*
X-6350000Y-750000D01*
X-9650000Y750000D02*
X-9650000Y-750000D01*
%TO.C,Q2*%
X39460000Y-31380000D02*
X39460000Y-30450000D01*
X39460000Y-28220000D02*
X39460000Y-29150000D01*
X39460000Y-28220000D02*
X38000000Y-28220000D01*
X39460000Y-31380000D02*
X38000000Y-31380000D01*
%TO.C,Q1*%
X-21290000Y28920000D02*
X-21290000Y28764000D01*
X-21290000Y31236000D02*
X-21290000Y31080000D01*
X-18057665Y28921392D02*
G75*
G02*
X-21290000Y28764484I-1672335J1078608D01*
G01*
X-18057665Y31078608D02*
G75*
G03*
X-21290000Y31235516I-1672335J-1078608D01*
G01*
%TO.C,J9*%
X-49600000Y-39000000D02*
X-40500000Y-39000000D01*
X-8400000Y-39000000D02*
X-17500000Y-39000000D01*
X-49600000Y-39000000D02*
X-49600000Y-16000000D01*
X-49600000Y-16000000D02*
X-8400000Y-16000000D01*
X-8400000Y-16000000D02*
X-8400000Y-39000000D01*
%TO.C,J8*%
X22510000Y-24300000D02*
X22510000Y-42300000D01*
X45510000Y-24300000D02*
X22510000Y-24300000D01*
X45510000Y-42300000D02*
X45510000Y-24300000D01*
X22510000Y-42300000D02*
X45510000Y-42300000D01*
X20600000Y19500000D02*
X47400000Y19500000D01*
X47400000Y19500000D02*
X47400000Y-10000000D01*
X47400000Y-10000000D02*
X20600000Y-10000000D01*
X20600000Y-10000000D02*
X20600000Y19500000D01*
X43000000Y-10000000D02*
X43000000Y-17000000D01*
X31000000Y-17000000D02*
X25000000Y-17000000D01*
X25000000Y-17000000D02*
X25000000Y-10000000D01*
X31000000Y-17000000D02*
X31000000Y-24300000D01*
X37000000Y-17000000D02*
X37000000Y-24300000D01*
X43000000Y-17000000D02*
X37000000Y-17000000D01*
%TO.C,J7*%
X-3200000Y-36600000D02*
X-1000000Y-36600000D01*
X-3200000Y-36600000D02*
X-3200000Y-32000000D01*
X9200000Y-36600000D02*
X7000000Y-36600000D01*
X9200000Y-36600000D02*
X9200000Y-32000000D01*
X9200000Y-23400000D02*
X8200000Y-23400000D01*
X9200000Y-23400000D02*
X9200000Y-28000000D01*
X-3200000Y-23400000D02*
X-3200000Y-28000000D01*
X-3200000Y-23400000D02*
X-2200000Y-23400000D01*
%TO.C,J6*%
X-14540000Y15650000D02*
X-18000000Y15650000D01*
X-14550000Y2350000D02*
X-14540000Y15650000D01*
X-18000000Y2350000D02*
X-14550000Y2350000D01*
X-47450000Y15650000D02*
X-44000000Y15650000D01*
X-47450000Y2350000D02*
X-47450000Y15650000D01*
X-44000000Y2350000D02*
X-47450000Y2350000D01*
X-44000000Y18850000D02*
X-44000000Y-850000D01*
X-18000000Y18850000D02*
X-44000000Y18850000D01*
X-18000000Y-850000D02*
X-18000000Y18850000D01*
X-44000000Y-850000D02*
X-18000000Y-850000D01*
%TO.C,J3*%
X-27500000Y-3400000D02*
X-27500000Y-13400000D01*
X-27500000Y-13400000D02*
X-12500000Y-13400000D01*
X-12500000Y-13400000D02*
X-12500000Y-3400000D01*
X-12500000Y-3400000D02*
X-27500000Y-3400000D01*
%TO.C,J2*%
X-46950000Y-3400000D02*
X-46950000Y-13300000D01*
X-31050000Y-3400000D02*
X-46950000Y-3400000D01*
X-31050000Y-13300000D02*
X-31050000Y-3400000D01*
X-46950000Y-13300000D02*
X-31050000Y-13300000D01*
%TO.C,J1*%
X21300000Y21700000D02*
X46700000Y21700000D01*
X46700000Y21700000D02*
X46700000Y41200000D01*
X46700000Y41200000D02*
X21300000Y41200000D01*
X21300000Y41200000D02*
X21300000Y21700000D01*
%TO.C,C4*%
X-33600000Y-36700000D02*
X-33400000Y-36500000D01*
X-33400000Y-36900000D02*
X-33600000Y-36700000D01*
X-33400000Y-36500000D02*
X-33400000Y-36900000D01*
X-35150000Y-37450000D02*
X-31850000Y-37450000D01*
X-35150000Y-35950000D02*
X-31850000Y-35950000D01*
X-31850000Y-35950000D02*
X-31850000Y-37450000D01*
X-35150000Y-35950000D02*
X-35150000Y-37450000D01*
%TO.C,C3*%
X-37500000Y-36700000D02*
X-37300000Y-36500000D01*
X-37300000Y-36900000D02*
X-37500000Y-36700000D01*
X-37300000Y-36500000D02*
X-37300000Y-36900000D01*
X-39050000Y-37450000D02*
X-35750000Y-37450000D01*
X-39050000Y-35950000D02*
X-35750000Y-35950000D01*
X-35750000Y-35950000D02*
X-35750000Y-37450000D01*
X-39050000Y-35950000D02*
X-39050000Y-37450000D01*
%TO.C,C2*%
X-29700000Y-36700000D02*
X-29500000Y-36500000D01*
X-29500000Y-36900000D02*
X-29700000Y-36700000D01*
X-29500000Y-36500000D02*
X-29500000Y-36900000D01*
X-31250000Y-37450000D02*
X-27950000Y-37450000D01*
X-31250000Y-35950000D02*
X-27950000Y-35950000D01*
X-27950000Y-35950000D02*
X-27950000Y-37450000D01*
X-31250000Y-35950000D02*
X-31250000Y-37450000D01*
%TO.C,C1*%
D11*
X-12266666Y-26757142D02*
X-12314285Y-26804761D01*
X-12457142Y-26852380D01*
X-12552380Y-26852380D01*
X-12695238Y-26804761D01*
X-12790476Y-26709523D01*
X-12838095Y-26614285D01*
X-12885714Y-26423809D01*
X-12885714Y-26280952D01*
X-12838095Y-26090476D01*
X-12790476Y-25995238D01*
X-12695238Y-25900000D01*
X-12552380Y-25852380D01*
X-12457142Y-25852380D01*
X-12314285Y-25900000D01*
X-12266666Y-25947619D01*
X-11314285Y-26852380D02*
X-11885714Y-26852380D01*
X-11600000Y-26852380D02*
X-11600000Y-25852380D01*
X-11695238Y-25995238D01*
X-11790476Y-26090476D01*
X-11885714Y-26138095D01*
%TO.C,R14*%
X-16942857Y-35652380D02*
X-17276190Y-35176190D01*
X-17514285Y-35652380D02*
X-17514285Y-34652380D01*
X-17133333Y-34652380D01*
X-17038095Y-34700000D01*
X-16990476Y-34747619D01*
X-16942857Y-34842857D01*
X-16942857Y-34985714D01*
X-16990476Y-35080952D01*
X-17038095Y-35128571D01*
X-17133333Y-35176190D01*
X-17514285Y-35176190D01*
X-15990476Y-35652380D02*
X-16561904Y-35652380D01*
X-16276190Y-35652380D02*
X-16276190Y-34652380D01*
X-16371428Y-34795238D01*
X-16466666Y-34890476D01*
X-16561904Y-34938095D01*
X-15133333Y-34985714D02*
X-15133333Y-35652380D01*
X-15371428Y-34604761D02*
X-15609523Y-35319047D01*
X-14990476Y-35319047D01*
%TO.C,R13*%
X34057142Y-29652380D02*
X33723809Y-29176190D01*
X33485714Y-29652380D02*
X33485714Y-28652380D01*
X33866666Y-28652380D01*
X33961904Y-28700000D01*
X34009523Y-28747619D01*
X34057142Y-28842857D01*
X34057142Y-28985714D01*
X34009523Y-29080952D01*
X33961904Y-29128571D01*
X33866666Y-29176190D01*
X33485714Y-29176190D01*
X35009523Y-29652380D02*
X34438095Y-29652380D01*
X34723809Y-29652380D02*
X34723809Y-28652380D01*
X34628571Y-28795238D01*
X34533333Y-28890476D01*
X34438095Y-28938095D01*
X35342857Y-28652380D02*
X35961904Y-28652380D01*
X35628571Y-29033333D01*
X35771428Y-29033333D01*
X35866666Y-29080952D01*
X35914285Y-29128571D01*
X35961904Y-29223809D01*
X35961904Y-29461904D01*
X35914285Y-29557142D01*
X35866666Y-29604761D01*
X35771428Y-29652380D01*
X35485714Y-29652380D01*
X35390476Y-29604761D01*
X35342857Y-29557142D01*
%TO.C,R12*%
X29157142Y-29652380D02*
X28823809Y-29176190D01*
X28585714Y-29652380D02*
X28585714Y-28652380D01*
X28966666Y-28652380D01*
X29061904Y-28700000D01*
X29109523Y-28747619D01*
X29157142Y-28842857D01*
X29157142Y-28985714D01*
X29109523Y-29080952D01*
X29061904Y-29128571D01*
X28966666Y-29176190D01*
X28585714Y-29176190D01*
X30109523Y-29652380D02*
X29538095Y-29652380D01*
X29823809Y-29652380D02*
X29823809Y-28652380D01*
X29728571Y-28795238D01*
X29633333Y-28890476D01*
X29538095Y-28938095D01*
X30490476Y-28747619D02*
X30538095Y-28700000D01*
X30633333Y-28652380D01*
X30871428Y-28652380D01*
X30966666Y-28700000D01*
X31014285Y-28747619D01*
X31061904Y-28842857D01*
X31061904Y-28938095D01*
X31014285Y-29080952D01*
X30442857Y-29652380D01*
X31061904Y-29652380D01*
%TO.C,R11*%
X41357142Y-36374380D02*
X41023809Y-35898190D01*
X40785714Y-36374380D02*
X40785714Y-35374380D01*
X41166666Y-35374380D01*
X41261904Y-35422000D01*
X41309523Y-35469619D01*
X41357142Y-35564857D01*
X41357142Y-35707714D01*
X41309523Y-35802952D01*
X41261904Y-35850571D01*
X41166666Y-35898190D01*
X40785714Y-35898190D01*
X42309523Y-36374380D02*
X41738095Y-36374380D01*
X42023809Y-36374380D02*
X42023809Y-35374380D01*
X41928571Y-35517238D01*
X41833333Y-35612476D01*
X41738095Y-35660095D01*
X43261904Y-36374380D02*
X42690476Y-36374380D01*
X42976190Y-36374380D02*
X42976190Y-35374380D01*
X42880952Y-35517238D01*
X42785714Y-35612476D01*
X42690476Y-35660095D01*
%TO.C,R10*%
X6357142Y-18952380D02*
X6023809Y-18476190D01*
X5785714Y-18952380D02*
X5785714Y-17952380D01*
X6166666Y-17952380D01*
X6261904Y-18000000D01*
X6309523Y-18047619D01*
X6357142Y-18142857D01*
X6357142Y-18285714D01*
X6309523Y-18380952D01*
X6261904Y-18428571D01*
X6166666Y-18476190D01*
X5785714Y-18476190D01*
X7309523Y-18952380D02*
X6738095Y-18952380D01*
X7023809Y-18952380D02*
X7023809Y-17952380D01*
X6928571Y-18095238D01*
X6833333Y-18190476D01*
X6738095Y-18238095D01*
X7928571Y-17952380D02*
X8023809Y-17952380D01*
X8119047Y-18000000D01*
X8166666Y-18047619D01*
X8214285Y-18142857D01*
X8261904Y-18333333D01*
X8261904Y-18571428D01*
X8214285Y-18761904D01*
X8166666Y-18857142D01*
X8119047Y-18904761D01*
X8023809Y-18952380D01*
X7928571Y-18952380D01*
X7833333Y-18904761D01*
X7785714Y-18857142D01*
X7738095Y-18761904D01*
X7690476Y-18571428D01*
X7690476Y-18333333D01*
X7738095Y-18142857D01*
X7785714Y-18047619D01*
X7833333Y-18000000D01*
X7928571Y-17952380D01*
%TO.C,R9*%
X2833333Y-18952380D02*
X2500000Y-18476190D01*
X2261904Y-18952380D02*
X2261904Y-17952380D01*
X2642857Y-17952380D01*
X2738095Y-18000000D01*
X2785714Y-18047619D01*
X2833333Y-18142857D01*
X2833333Y-18285714D01*
X2785714Y-18380952D01*
X2738095Y-18428571D01*
X2642857Y-18476190D01*
X2261904Y-18476190D01*
X3309523Y-18952380D02*
X3500000Y-18952380D01*
X3595238Y-18904761D01*
X3642857Y-18857142D01*
X3738095Y-18714285D01*
X3785714Y-18523809D01*
X3785714Y-18142857D01*
X3738095Y-18047619D01*
X3690476Y-18000000D01*
X3595238Y-17952380D01*
X3404761Y-17952380D01*
X3309523Y-18000000D01*
X3261904Y-18047619D01*
X3214285Y-18142857D01*
X3214285Y-18380952D01*
X3261904Y-18476190D01*
X3309523Y-18523809D01*
X3404761Y-18571428D01*
X3595238Y-18571428D01*
X3690476Y-18523809D01*
X3738095Y-18476190D01*
X3785714Y-18380952D01*
%TO.C,R8*%
X-1166666Y-18952380D02*
X-1500000Y-18476190D01*
X-1738095Y-18952380D02*
X-1738095Y-17952380D01*
X-1357142Y-17952380D01*
X-1261904Y-18000000D01*
X-1214285Y-18047619D01*
X-1166666Y-18142857D01*
X-1166666Y-18285714D01*
X-1214285Y-18380952D01*
X-1261904Y-18428571D01*
X-1357142Y-18476190D01*
X-1738095Y-18476190D01*
X-595238Y-18380952D02*
X-690476Y-18333333D01*
X-738095Y-18285714D01*
X-785714Y-18190476D01*
X-785714Y-18142857D01*
X-738095Y-18047619D01*
X-690476Y-18000000D01*
X-595238Y-17952380D01*
X-404761Y-17952380D01*
X-309523Y-18000000D01*
X-261904Y-18047619D01*
X-214285Y-18142857D01*
X-214285Y-18190476D01*
X-261904Y-18285714D01*
X-309523Y-18333333D01*
X-404761Y-18380952D01*
X-595238Y-18380952D01*
X-690476Y-18428571D01*
X-738095Y-18476190D01*
X-785714Y-18571428D01*
X-785714Y-18761904D01*
X-738095Y-18857142D01*
X-690476Y-18904761D01*
X-595238Y-18952380D01*
X-404761Y-18952380D01*
X-309523Y-18904761D01*
X-261904Y-18857142D01*
X-214285Y-18761904D01*
X-214285Y-18571428D01*
X-261904Y-18476190D01*
X-309523Y-18428571D01*
X-404761Y-18380952D01*
%TO.C,R7*%
X4933333Y-39952380D02*
X4600000Y-39476190D01*
X4361904Y-39952380D02*
X4361904Y-38952380D01*
X4742857Y-38952380D01*
X4838095Y-39000000D01*
X4885714Y-39047619D01*
X4933333Y-39142857D01*
X4933333Y-39285714D01*
X4885714Y-39380952D01*
X4838095Y-39428571D01*
X4742857Y-39476190D01*
X4361904Y-39476190D01*
X5266666Y-38952380D02*
X5933333Y-38952380D01*
X5504761Y-39952380D01*
%TO.C,R6*%
X833333Y-39952380D02*
X499999Y-39476190D01*
X261904Y-39952380D02*
X261904Y-38952380D01*
X642857Y-38952380D01*
X738095Y-39000000D01*
X785714Y-39047619D01*
X833333Y-39142857D01*
X833333Y-39285714D01*
X785714Y-39380952D01*
X738095Y-39428571D01*
X642857Y-39476190D01*
X261904Y-39476190D01*
X1690476Y-38952380D02*
X1499999Y-38952380D01*
X1404761Y-39000000D01*
X1357142Y-39047619D01*
X1261904Y-39190476D01*
X1214285Y-39380952D01*
X1214285Y-39761904D01*
X1261904Y-39857142D01*
X1309523Y-39904761D01*
X1404761Y-39952380D01*
X1595238Y-39952380D01*
X1690476Y-39904761D01*
X1738095Y-39857142D01*
X1785714Y-39761904D01*
X1785714Y-39523809D01*
X1738095Y-39428571D01*
X1690476Y-39380952D01*
X1595238Y-39333333D01*
X1404761Y-39333333D01*
X1309523Y-39380952D01*
X1261904Y-39428571D01*
X1214285Y-39523809D01*
%TO.C,R5*%
X-13666666Y-17552380D02*
X-14000000Y-17076190D01*
X-14238095Y-17552380D02*
X-14238095Y-16552380D01*
X-13857142Y-16552380D01*
X-13761904Y-16600000D01*
X-13714285Y-16647619D01*
X-13666666Y-16742857D01*
X-13666666Y-16885714D01*
X-13714285Y-16980952D01*
X-13761904Y-17028571D01*
X-13857142Y-17076190D01*
X-14238095Y-17076190D01*
X-12761904Y-16552380D02*
X-13238095Y-16552380D01*
X-13285714Y-17028571D01*
X-13238095Y-16980952D01*
X-13142857Y-16933333D01*
X-12904761Y-16933333D01*
X-12809523Y-16980952D01*
X-12761904Y-17028571D01*
X-12714285Y-17123809D01*
X-12714285Y-17361904D01*
X-12761904Y-17457142D01*
X-12809523Y-17504761D01*
X-12904761Y-17552380D01*
X-13142857Y-17552380D01*
X-13238095Y-17504761D01*
X-13285714Y-17457142D01*
%TO.C,R4*%
X36833333Y27025619D02*
X36500000Y27501809D01*
X36261904Y27025619D02*
X36261904Y28025619D01*
X36642857Y28025619D01*
X36738095Y27978000D01*
X36785714Y27930380D01*
X36833333Y27835142D01*
X36833333Y27692285D01*
X36785714Y27597047D01*
X36738095Y27549428D01*
X36642857Y27501809D01*
X36261904Y27501809D01*
X37690476Y27692285D02*
X37690476Y27025619D01*
X37452380Y28073238D02*
X37214285Y27358952D01*
X37833333Y27358952D01*
%TO.C,R3*%
X-20016666Y36325619D02*
X-20350000Y36801809D01*
X-20588095Y36325619D02*
X-20588095Y37325619D01*
X-20207142Y37325619D01*
X-20111904Y37278000D01*
X-20064285Y37230380D01*
X-20016666Y37135142D01*
X-20016666Y36992285D01*
X-20064285Y36897047D01*
X-20111904Y36849428D01*
X-20207142Y36801809D01*
X-20588095Y36801809D01*
X-19683333Y37325619D02*
X-19064285Y37325619D01*
X-19397619Y36944666D01*
X-19254761Y36944666D01*
X-19159523Y36897047D01*
X-19111904Y36849428D01*
X-19064285Y36754190D01*
X-19064285Y36516095D01*
X-19111904Y36420857D01*
X-19159523Y36373238D01*
X-19254761Y36325619D01*
X-19540476Y36325619D01*
X-19635714Y36373238D01*
X-19683333Y36420857D01*
%TO.C,R2*%
X-8166666Y-2152380D02*
X-8500000Y-1676190D01*
X-8738095Y-2152380D02*
X-8738095Y-1152380D01*
X-8357142Y-1152380D01*
X-8261904Y-1200000D01*
X-8214285Y-1247619D01*
X-8166666Y-1342857D01*
X-8166666Y-1485714D01*
X-8214285Y-1580952D01*
X-8261904Y-1628571D01*
X-8357142Y-1676190D01*
X-8738095Y-1676190D01*
X-7785714Y-1247619D02*
X-7738095Y-1200000D01*
X-7642857Y-1152380D01*
X-7404761Y-1152380D01*
X-7309523Y-1200000D01*
X-7261904Y-1247619D01*
X-7214285Y-1342857D01*
X-7214285Y-1438095D01*
X-7261904Y-1580952D01*
X-7833333Y-2152380D01*
X-7214285Y-2152380D01*
%TO.C,R1*%
X-8166666Y1047619D02*
X-8500000Y1523809D01*
X-8738095Y1047619D02*
X-8738095Y2047619D01*
X-8357142Y2047619D01*
X-8261904Y2000000D01*
X-8214285Y1952380D01*
X-8166666Y1857142D01*
X-8166666Y1714285D01*
X-8214285Y1619047D01*
X-8261904Y1571428D01*
X-8357142Y1523809D01*
X-8738095Y1523809D01*
X-7214285Y1047619D02*
X-7785714Y1047619D01*
X-7500000Y1047619D02*
X-7500000Y2047619D01*
X-7595238Y1904761D01*
X-7690476Y1809523D01*
X-7785714Y1761904D01*
%TO.C,Q2*%
X38604761Y-27847619D02*
X38509523Y-27800000D01*
X38414285Y-27704761D01*
X38271428Y-27561904D01*
X38176190Y-27514285D01*
X38080952Y-27514285D01*
X38128571Y-27752380D02*
X38033333Y-27704761D01*
X37938095Y-27609523D01*
X37890476Y-27419047D01*
X37890476Y-27085714D01*
X37938095Y-26895238D01*
X38033333Y-26800000D01*
X38128571Y-26752380D01*
X38319047Y-26752380D01*
X38414285Y-26800000D01*
X38509523Y-26895238D01*
X38557142Y-27085714D01*
X38557142Y-27419047D01*
X38509523Y-27609523D01*
X38414285Y-27704761D01*
X38319047Y-27752380D01*
X38128571Y-27752380D01*
X38938095Y-26847619D02*
X38985714Y-26800000D01*
X39080952Y-26752380D01*
X39319047Y-26752380D01*
X39414285Y-26800000D01*
X39461904Y-26847619D01*
X39509523Y-26942857D01*
X39509523Y-27038095D01*
X39461904Y-27180952D01*
X38890476Y-27752380D01*
X39509523Y-27752380D01*
%TO.C,Q1*%
X-19825238Y32412380D02*
X-19920476Y32460000D01*
X-20015714Y32555238D01*
X-20158571Y32698095D01*
X-20253809Y32745714D01*
X-20349047Y32745714D01*
X-20301428Y32507619D02*
X-20396666Y32555238D01*
X-20491904Y32650476D01*
X-20539523Y32840952D01*
X-20539523Y33174285D01*
X-20491904Y33364761D01*
X-20396666Y33460000D01*
X-20301428Y33507619D01*
X-20110952Y33507619D01*
X-20015714Y33460000D01*
X-19920476Y33364761D01*
X-19872857Y33174285D01*
X-19872857Y32840952D01*
X-19920476Y32650476D01*
X-20015714Y32555238D01*
X-20110952Y32507619D01*
X-20301428Y32507619D01*
X-18920476Y32507619D02*
X-19491904Y32507619D01*
X-19206190Y32507619D02*
X-19206190Y33507619D01*
X-19301428Y33364761D01*
X-19396666Y33269523D01*
X-19491904Y33221904D01*
%TO.C,J9*%
X-27133333Y-36652380D02*
X-27133333Y-37366666D01*
X-27180952Y-37509523D01*
X-27276190Y-37604761D01*
X-27419047Y-37652380D01*
X-27514285Y-37652380D01*
X-26609523Y-37652380D02*
X-26419047Y-37652380D01*
X-26323809Y-37604761D01*
X-26276190Y-37557142D01*
X-26180952Y-37414285D01*
X-26133333Y-37223809D01*
X-26133333Y-36842857D01*
X-26180952Y-36747619D01*
X-26228571Y-36700000D01*
X-26323809Y-36652380D01*
X-26514285Y-36652380D01*
X-26609523Y-36700000D01*
X-26657142Y-36747619D01*
X-26704761Y-36842857D01*
X-26704761Y-37080952D01*
X-26657142Y-37176190D01*
X-26609523Y-37223809D01*
X-26514285Y-37271428D01*
X-26323809Y-37271428D01*
X-26228571Y-37223809D01*
X-26180952Y-37176190D01*
X-26133333Y-37080952D01*
%TO.C,J8*%
X33766666Y-37552380D02*
X33766666Y-38266666D01*
X33719047Y-38409523D01*
X33623809Y-38504761D01*
X33480952Y-38552380D01*
X33385714Y-38552380D01*
X34385714Y-37980952D02*
X34290476Y-37933333D01*
X34242857Y-37885714D01*
X34195238Y-37790476D01*
X34195238Y-37742857D01*
X34242857Y-37647619D01*
X34290476Y-37600000D01*
X34385714Y-37552380D01*
X34576190Y-37552380D01*
X34671428Y-37600000D01*
X34719047Y-37647619D01*
X34766666Y-37742857D01*
X34766666Y-37790476D01*
X34719047Y-37885714D01*
X34671428Y-37933333D01*
X34576190Y-37980952D01*
X34385714Y-37980952D01*
X34290476Y-38028571D01*
X34242857Y-38076190D01*
X34195238Y-38171428D01*
X34195238Y-38361904D01*
X34242857Y-38457142D01*
X34290476Y-38504761D01*
X34385714Y-38552380D01*
X34576190Y-38552380D01*
X34671428Y-38504761D01*
X34719047Y-38457142D01*
X34766666Y-38361904D01*
X34766666Y-38171428D01*
X34719047Y-38076190D01*
X34671428Y-38028571D01*
X34576190Y-37980952D01*
%TO.C,J7*%
X2666666Y-29952380D02*
X2666666Y-30666666D01*
X2619047Y-30809523D01*
X2523809Y-30904761D01*
X2380952Y-30952380D01*
X2285714Y-30952380D01*
X3047619Y-29952380D02*
X3714285Y-29952380D01*
X3285714Y-30952380D01*
%TO.C,J6*%
X-31333333Y9047619D02*
X-31333333Y8333333D01*
X-31380952Y8190476D01*
X-31476190Y8095238D01*
X-31619047Y8047619D01*
X-31714285Y8047619D01*
X-30428571Y9047619D02*
X-30619047Y9047619D01*
X-30714285Y9000000D01*
X-30761904Y8952380D01*
X-30857142Y8809523D01*
X-30904761Y8619047D01*
X-30904761Y8238095D01*
X-30857142Y8142857D01*
X-30809523Y8095238D01*
X-30714285Y8047619D01*
X-30523809Y8047619D01*
X-30428571Y8095238D01*
X-30380952Y8142857D01*
X-30333333Y8238095D01*
X-30333333Y8476190D01*
X-30380952Y8571428D01*
X-30428571Y8619047D01*
X-30523809Y8666666D01*
X-30714285Y8666666D01*
X-30809523Y8619047D01*
X-30857142Y8571428D01*
X-30904761Y8476190D01*
%TO.C,J5*%
X2466666Y20947619D02*
X2466666Y20233333D01*
X2419047Y20090476D01*
X2323809Y19995238D01*
X2180952Y19947619D01*
X2085714Y19947619D01*
X3419047Y20947619D02*
X2942857Y20947619D01*
X2895238Y20471428D01*
X2942857Y20519047D01*
X3038095Y20566666D01*
X3276190Y20566666D01*
X3371428Y20519047D01*
X3419047Y20471428D01*
X3466666Y20376190D01*
X3466666Y20138095D01*
X3419047Y20042857D01*
X3371428Y19995238D01*
X3276190Y19947619D01*
X3038095Y19947619D01*
X2942857Y19995238D01*
X2895238Y20042857D01*
%TO.C,J4*%
X-35833333Y31147619D02*
X-35833333Y30433333D01*
X-35880952Y30290476D01*
X-35976190Y30195238D01*
X-36119047Y30147619D01*
X-36214285Y30147619D01*
X-34928571Y30814285D02*
X-34928571Y30147619D01*
X-35166666Y31195238D02*
X-35404761Y30480952D01*
X-34785714Y30480952D01*
%TO.C,J3*%
X-20333333Y-10052380D02*
X-20333333Y-10766666D01*
X-20380952Y-10909523D01*
X-20476190Y-11004761D01*
X-20619047Y-11052380D01*
X-20714285Y-11052380D01*
X-19952380Y-10052380D02*
X-19333333Y-10052380D01*
X-19666666Y-10433333D01*
X-19523809Y-10433333D01*
X-19428571Y-10480952D01*
X-19380952Y-10528571D01*
X-19333333Y-10623809D01*
X-19333333Y-10861904D01*
X-19380952Y-10957142D01*
X-19428571Y-11004761D01*
X-19523809Y-11052380D01*
X-19809523Y-11052380D01*
X-19904761Y-11004761D01*
X-19952380Y-10957142D01*
%TO.C,J2*%
X-39333333Y-9852380D02*
X-39333333Y-10566666D01*
X-39380952Y-10709523D01*
X-39476190Y-10804761D01*
X-39619047Y-10852380D01*
X-39714285Y-10852380D01*
X-38904761Y-9947619D02*
X-38857142Y-9900000D01*
X-38761904Y-9852380D01*
X-38523809Y-9852380D01*
X-38428571Y-9900000D01*
X-38380952Y-9947619D01*
X-38333333Y-10042857D01*
X-38333333Y-10138095D01*
X-38380952Y-10280952D01*
X-38952380Y-10852380D01*
X-38333333Y-10852380D01*
%TO.C,J1*%
X33666666Y25147619D02*
X33666666Y24433333D01*
X33619047Y24290476D01*
X33523809Y24195238D01*
X33380952Y24147619D01*
X33285714Y24147619D01*
X34666666Y24147619D02*
X34095238Y24147619D01*
X34380952Y24147619D02*
X34380952Y25147619D01*
X34285714Y25004761D01*
X34190476Y24909523D01*
X34095238Y24861904D01*
%TO.C,C4*%
X-33666666Y-35557142D02*
X-33714285Y-35604761D01*
X-33857142Y-35652380D01*
X-33952380Y-35652380D01*
X-34095238Y-35604761D01*
X-34190476Y-35509523D01*
X-34238095Y-35414285D01*
X-34285714Y-35223809D01*
X-34285714Y-35080952D01*
X-34238095Y-34890476D01*
X-34190476Y-34795238D01*
X-34095238Y-34700000D01*
X-33952380Y-34652380D01*
X-33857142Y-34652380D01*
X-33714285Y-34700000D01*
X-33666666Y-34747619D01*
X-32809523Y-34985714D02*
X-32809523Y-35652380D01*
X-33047619Y-34604761D02*
X-33285714Y-35319047D01*
X-32666666Y-35319047D01*
%TO.C,C3*%
X-37566666Y-35557142D02*
X-37614285Y-35604761D01*
X-37757142Y-35652380D01*
X-37852380Y-35652380D01*
X-37995238Y-35604761D01*
X-38090476Y-35509523D01*
X-38138095Y-35414285D01*
X-38185714Y-35223809D01*
X-38185714Y-35080952D01*
X-38138095Y-34890476D01*
X-38090476Y-34795238D01*
X-37995238Y-34700000D01*
X-37852380Y-34652380D01*
X-37757142Y-34652380D01*
X-37614285Y-34700000D01*
X-37566666Y-34747619D01*
X-37233333Y-34652380D02*
X-36614285Y-34652380D01*
X-36947619Y-35033333D01*
X-36804761Y-35033333D01*
X-36709523Y-35080952D01*
X-36661904Y-35128571D01*
X-36614285Y-35223809D01*
X-36614285Y-35461904D01*
X-36661904Y-35557142D01*
X-36709523Y-35604761D01*
X-36804761Y-35652380D01*
X-37090476Y-35652380D01*
X-37185714Y-35604761D01*
X-37233333Y-35557142D01*
%TO.C,C2*%
X-31166666Y-35557142D02*
X-31214285Y-35604761D01*
X-31357142Y-35652380D01*
X-31452380Y-35652380D01*
X-31595238Y-35604761D01*
X-31690476Y-35509523D01*
X-31738095Y-35414285D01*
X-31785714Y-35223809D01*
X-31785714Y-35080952D01*
X-31738095Y-34890476D01*
X-31690476Y-34795238D01*
X-31595238Y-34700000D01*
X-31452380Y-34652380D01*
X-31357142Y-34652380D01*
X-31214285Y-34700000D01*
X-31166666Y-34747619D01*
X-30785714Y-34747619D02*
X-30738095Y-34700000D01*
X-30642857Y-34652380D01*
X-30404761Y-34652380D01*
X-30309523Y-34700000D01*
X-30261904Y-34747619D01*
X-30214285Y-34842857D01*
X-30214285Y-34938095D01*
X-30261904Y-35080952D01*
X-30833333Y-35652380D01*
X-30214285Y-35652380D01*
%TD*%
M02*
