M48
; DRILL file {KiCad (5.1.10-1-10_14)} date Wednesday, December 01, 2021 at 11:10:26 PM
; FORMAT={-:-/ absolute / metric / decimal}
; #@! TF.CreationDate,2021-12-01T23:10:26+09:00
; #@! TF.GenerationSoftware,Kicad,Pcbnew,(5.1.10-1-10_14)
FMAT,2
METRIC
T1C0.305
T2C0.762
T3C0.800
T4C0.900
T5C1.000
T6C1.100
T7C2.000
%
G90
G05
T1
X-45.0Y40.0
X-45.0Y35.0
X-45.0Y0.0
X-45.0Y-5.0
X-45.0Y-15.0
X-45.0Y-20.0
X-45.0Y-25.0
X-45.0Y-30.0
X-45.0Y-35.0
X-45.0Y-40.0
X-40.0Y35.0
X-40.0Y30.0
X-40.0Y25.0
X-40.0Y5.0
X-40.0Y0.0
X-40.0Y-25.0
X-40.0Y-30.0
X-40.0Y-35.0
X-35.0Y30.0
X-35.0Y25.0
X-35.0Y15.0
X-35.0Y5.0
X-35.0Y0.0
X-35.0Y-20.0
X-35.0Y-30.0
X-30.0Y30.0
X-30.0Y25.0
X-30.0Y15.0
X-30.0Y5.0
X-30.0Y-5.0
X-30.0Y-10.0
X-30.0Y-20.0
X-30.0Y-25.0
X-25.0Y40.0
X-25.0Y30.0
X-25.0Y25.0
X-25.0Y10.0
X-25.0Y5.0
X-20.0Y40.0
X-20.0Y15.0
X-20.0Y10.0
X-20.0Y5.0
X-20.0Y-30.0
X-16.8Y20.8
X-16.0Y20.0
X-15.7Y20.9
X-15.3Y19.2
X-15.0Y40.0
X-15.0Y30.0
X-15.0Y-25.0
X-15.0Y-30.0
X-10.0Y-5.0
X-10.0Y-15.0
X-10.0Y-20.0
X-10.0Y-25.0
X-10.0Y-30.0
X-10.0Y-35.0
X-6.949Y-1.949
X-5.0Y40.0
X-5.0Y35.0
X-5.0Y25.0
X-5.0Y20.0
X-5.0Y-5.0
X-5.0Y-10.0
X-5.0Y-15.0
X-5.0Y-20.0
X-5.0Y-25.0
X-5.0Y-35.0
X-4.9Y-1.7
X-1.8Y23.5
X-1.8Y9.1
X-1.0Y4.5
X-1.0Y-3.5
X-0.2Y3.5
X-0.2Y-2.5
X0.0Y40.0
X0.0Y35.0
X2.2Y17.1
X3.0Y14.6
X3.8Y6.9
X4.6Y12.0
X5.0Y25.0
X5.6Y42.4
X7.1Y39.9
X8.8Y23.9
X9.6Y39.1
X10.0Y30.0
X10.0Y10.0
X10.0Y0.0
X10.0Y-5.0
X10.0Y-10.0
X10.0Y-15.0
X10.0Y-20.0
X10.0Y-25.0
X10.0Y-35.0
X10.0Y-40.0
X15.0Y0.0
X15.0Y-5.0
X15.0Y-10.0
X15.0Y-15.0
X15.0Y-20.0
X15.0Y-25.0
X15.0Y-30.0
X15.0Y-35.0
X15.0Y-40.0
X20.0Y40.0
X20.0Y35.0
X20.0Y30.0
X20.0Y15.0
X20.0Y10.0
X20.0Y5.0
X20.0Y0.0
X20.0Y-40.0
X24.0Y17.1
X25.0Y30.0
X25.0Y10.0
X25.0Y5.0
X25.0Y-5.0
X25.0Y-10.0
X25.0Y-15.0
X25.0Y-20.0
X25.1Y12.1
X27.6Y-24.9
X28.751Y-26.949
X30.0Y40.0
X30.0Y35.0
X30.0Y30.0
X30.0Y-25.3
X35.0Y40.0
X35.0Y35.0
X35.0Y30.0
X35.0Y15.0
X35.0Y10.0
X35.0Y5.0
X35.0Y0.0
X35.0Y-5.0
X35.0Y-10.0
X35.0Y-15.0
X35.0Y-20.0
X35.0Y-25.0
X40.0Y40.0
X40.0Y35.0
X40.0Y30.0
X40.0Y25.0
X40.0Y20.0
X40.0Y15.0
X40.0Y10.0
X40.0Y5.0
X40.0Y0.0
X40.0Y-5.0
X40.0Y-10.0
X40.0Y-15.0
X40.0Y-20.0
X40.0Y-25.0
X45.0Y40.0
X45.0Y35.0
X45.0Y30.0
X45.0Y25.0
X45.0Y20.0
X45.0Y15.0
X45.0Y10.0
X45.0Y5.0
X45.0Y0.0
X45.0Y-5.0
X45.0Y-10.0
X45.0Y-15.0
X45.0Y-20.0
X45.0Y-25.0
X45.0Y-30.0
T2
X-23.81Y-4.59
X-23.81Y-12.21
X-21.27Y-4.59
X-21.27Y-12.21
X-18.73Y-4.59
X-18.73Y-12.21
X-16.23Y14.08
X-16.23Y11.54
X-16.23Y9.0
X-16.23Y6.46
X-16.19Y-4.59
X-16.19Y-12.21
X22.57Y23.0
X25.11Y38.24
X25.11Y35.7
X25.11Y23.0
X27.65Y23.0
X30.19Y23.0
X32.73Y23.0
X35.27Y23.0
X37.81Y23.0
X40.35Y23.0
X42.89Y38.24
X42.89Y35.7
X42.89Y23.0
X45.43Y23.0
T3
X-47.2Y42.2
X-47.2Y-42.2
X-45.77Y14.08
X-45.77Y11.54
X-45.77Y9.0
X-45.77Y6.46
X-45.77Y3.92
X-45.35Y-12.0
X-42.81Y-12.0
X-42.0Y39.89
X-42.0Y22.11
X-40.27Y-12.0
X-39.46Y39.89
X-39.46Y22.11
X-39.16Y-39.0
X-37.73Y-12.0
X-36.92Y39.89
X-36.92Y22.11
X-36.62Y-39.0
X-35.19Y-12.0
X-34.38Y39.89
X-34.38Y22.11
X-34.08Y-39.0
X-32.65Y-12.0
X-31.84Y39.89
X-31.84Y22.11
X-31.54Y-39.0
X-29.3Y39.89
X-29.3Y22.11
X-29.0Y-39.0
X-26.46Y-39.0
X-23.92Y-39.0
X-21.38Y-39.0
X-18.84Y-39.0
X-10.97Y40.0
X-10.97Y37.46
X-10.97Y34.92
X-10.97Y32.38
X-10.97Y29.84
X-10.97Y27.3
X-10.97Y24.76
X-10.97Y22.22
X-10.97Y19.68
X-10.97Y17.14
X-10.97Y14.6
X-10.97Y12.06
X-10.97Y9.52
X-10.97Y6.98
X-10.97Y4.44
X-8.43Y40.0
X-8.43Y37.46
X-8.43Y34.92
X-8.43Y32.38
X-8.43Y29.84
X-8.43Y27.3
X-8.43Y24.76
X-8.43Y22.22
X-8.43Y19.68
X-8.43Y17.14
X-8.43Y14.6
X-8.43Y12.06
X-8.43Y9.52
X-8.43Y6.98
X-8.43Y4.44
X14.43Y40.0
X14.43Y37.46
X14.43Y34.92
X14.43Y32.38
X14.43Y29.84
X14.43Y27.3
X14.43Y24.76
X14.43Y22.22
X14.43Y19.68
X14.43Y17.14
X14.43Y14.6
X14.43Y12.06
X14.43Y9.52
X14.43Y6.98
X14.43Y4.44
X16.97Y40.0
X16.97Y37.46
X16.97Y34.92
X16.97Y32.38
X16.97Y29.84
X16.97Y27.3
X16.97Y24.76
X16.97Y22.22
X16.97Y19.68
X16.97Y17.14
X16.97Y14.6
X16.97Y12.06
X16.97Y9.52
X16.97Y6.98
X16.97Y4.44
X25.11Y-27.3
X25.11Y-29.84
X25.11Y-40.0
X27.65Y-40.0
X30.19Y-40.0
X32.73Y-40.0
X35.27Y-40.0
X37.81Y-40.0
X40.35Y-40.0
X42.89Y-27.3
X42.89Y-29.84
X42.89Y-40.0
X47.2Y42.2
X47.2Y-42.2
T4
X-21.0Y30.0
X-18.46Y30.0
T5
X-26.65Y-26.4
X-21.15Y-26.4
X-1.0Y-23.0
X1.0Y-23.0
X3.0Y-23.0
X5.0Y-23.0
X7.0Y-23.0
T6
X0.5Y-37.5
X3.0Y-37.5
X5.5Y-37.5
T7
G00X-3.2Y-29.95
M15
G01X-3.2Y-30.05
M16
G05
G00X9.2Y-29.95
M15
G01X9.2Y-30.05
M16
G05
T0
M30
