%TF.GenerationSoftware,KiCad,Pcbnew,(5.1.10-1-10_14)*%
%TF.CreationDate,2021-12-01T23:10:12+09:00*%
%TF.ProjectId,EB-ESP32,45422d45-5350-4333-922e-6b696361645f,V1.0*%
%TF.SameCoordinates,Original*%
%TF.FileFunction,Soldermask,Bot*%
%TF.FilePolarity,Negative*%
%FSLAX46Y46*%
G04 Gerber Fmt 4.6, Leading zero omitted, Abs format (unit mm)*
G04 Created by KiCad (PCBNEW (5.1.10-1-10_14)) date 2021-12-01 23:10:12*
%MOMM*%
%LPD*%
G01*
G04 APERTURE LIST*
%ADD10R,1.400000X1.524000*%
%ADD11R,1.600000X1.600000*%
%ADD12C,1.600000*%
%ADD13C,1.800000*%
%ADD14R,1.800000X1.800000*%
%ADD15C,1.400000*%
%ADD16R,1.400000X1.400000*%
%ADD17O,2.600000X2.700000*%
%ADD18C,1.524000*%
%ADD19R,1.524000X1.524000*%
G04 APERTURE END LIST*
D10*
%TO.C,TP4*%
X-47200000Y-42200000D03*
%TD*%
%TO.C,TP3*%
X47200000Y-42200000D03*
%TD*%
%TO.C,TP2*%
X47200000Y42200000D03*
%TD*%
%TO.C,TP1*%
X-47200000Y42200000D03*
%TD*%
D11*
%TO.C,C1*%
X-26650000Y-26400000D03*
D12*
X-21150000Y-26400000D03*
%TD*%
D13*
%TO.C,Q1*%
X-18460000Y30000000D03*
D14*
X-21000000Y30000000D03*
%TD*%
D15*
%TO.C,J9*%
X-18840000Y-39000000D03*
X-21380000Y-39000000D03*
X-23920000Y-39000000D03*
D16*
X-26460000Y-39000000D03*
D15*
X-29000000Y-39000000D03*
X-31540000Y-39000000D03*
X-34080000Y-39000000D03*
X-36620000Y-39000000D03*
X-39160000Y-39000000D03*
%TD*%
%TO.C,J8*%
X25110000Y-27300000D03*
X25110000Y-29840000D03*
X42890000Y-27300000D03*
X42890000Y-29840000D03*
X42890000Y-40000000D03*
X40350000Y-40000000D03*
X37810000Y-40000000D03*
X35270000Y-40000000D03*
X32730000Y-40000000D03*
D16*
X30190000Y-40000000D03*
D15*
X27650000Y-40000000D03*
X25110000Y-40000000D03*
%TD*%
D17*
%TO.C,J7*%
X9200000Y-30000000D03*
X-3200000Y-30000000D03*
D13*
X5500000Y-37500000D03*
X3000000Y-37500000D03*
X500000Y-37500000D03*
D12*
X7000000Y-23000000D03*
X5000000Y-23000000D03*
X3000000Y-23000000D03*
X1000000Y-23000000D03*
X-1000000Y-23000000D03*
%TD*%
D18*
%TO.C,J6*%
X-16230000Y14080000D03*
X-16230000Y11540000D03*
D19*
X-16230000Y9000000D03*
D18*
X-16230000Y6460000D03*
D15*
X-45770000Y3920000D03*
X-45770000Y6460000D03*
X-45770000Y9000000D03*
X-45770000Y11540000D03*
X-45770000Y14080000D03*
%TD*%
%TO.C,J5*%
X16970000Y4440000D03*
X16970000Y9520000D03*
X16970000Y12060000D03*
X16970000Y14600000D03*
X16970000Y17140000D03*
X16970000Y19680000D03*
X16970000Y22220000D03*
X16970000Y24760000D03*
X16970000Y27300000D03*
X16970000Y29840000D03*
X16970000Y32380000D03*
X16970000Y34920000D03*
X16970000Y37460000D03*
D16*
X16970000Y40000000D03*
D15*
X16970000Y6980000D03*
D16*
X-10970000Y40000000D03*
D15*
X-10970000Y29840000D03*
X-10970000Y24760000D03*
X-10970000Y4440000D03*
X-10970000Y34920000D03*
X-10970000Y37460000D03*
X-10970000Y12060000D03*
X-10970000Y9520000D03*
X-10970000Y6980000D03*
X-10970000Y32380000D03*
X-10970000Y27300000D03*
X-10970000Y22220000D03*
X-10970000Y19680000D03*
X-10970000Y17140000D03*
X-10970000Y14600000D03*
X14430000Y6980000D03*
D16*
X14430000Y40000000D03*
D15*
X14430000Y37460000D03*
X14430000Y34920000D03*
X14430000Y32380000D03*
X14430000Y29840000D03*
X14430000Y27300000D03*
X14430000Y24760000D03*
X14430000Y22220000D03*
X14430000Y19680000D03*
X14430000Y17140000D03*
X14430000Y14600000D03*
X14430000Y12060000D03*
X14430000Y9520000D03*
X14430000Y4440000D03*
X-8430000Y4440000D03*
X-8430000Y6980000D03*
X-8430000Y9520000D03*
X-8430000Y12060000D03*
X-8430000Y14600000D03*
X-8430000Y17140000D03*
X-8430000Y19680000D03*
X-8430000Y22220000D03*
X-8430000Y24760000D03*
X-8430000Y27300000D03*
X-8430000Y29840000D03*
X-8430000Y32380000D03*
X-8430000Y34920000D03*
X-8430000Y37460000D03*
D16*
X-8430000Y40000000D03*
%TD*%
%TO.C,J4*%
X-42000000Y39890000D03*
D15*
X-39460000Y39890000D03*
X-36920000Y39890000D03*
X-34380000Y39890000D03*
X-31840000Y39890000D03*
X-29300000Y39890000D03*
X-29300000Y22110000D03*
X-31840000Y22110000D03*
X-34380000Y22110000D03*
X-36920000Y22110000D03*
X-39460000Y22110000D03*
D16*
X-42000000Y22110000D03*
%TD*%
D18*
%TO.C,J3*%
X-16190000Y-12210000D03*
X-18730000Y-12210000D03*
X-21270000Y-12210000D03*
X-23810000Y-12210000D03*
D19*
X-23810000Y-4590000D03*
D18*
X-21270000Y-4590000D03*
X-18730000Y-4590000D03*
X-16190000Y-4590000D03*
%TD*%
D15*
%TO.C,J2*%
X-32650000Y-12000000D03*
X-35190000Y-12000000D03*
X-37730000Y-12000000D03*
X-40270000Y-12000000D03*
D16*
X-42810000Y-12000000D03*
D15*
X-45350000Y-12000000D03*
%TD*%
D18*
%TO.C,J1*%
X42890000Y38240000D03*
X42890000Y35700000D03*
X25110000Y38240000D03*
X25110000Y35700000D03*
X45430000Y23000000D03*
X42890000Y23000000D03*
X40350000Y23000000D03*
X37810000Y23000000D03*
D19*
X35270000Y23000000D03*
D18*
X32730000Y23000000D03*
X30190000Y23000000D03*
X27650000Y23000000D03*
X25110000Y23000000D03*
X22570000Y23000000D03*
%TD*%
M02*
